<svg xmlns="http://www.w3.org/2000/svg" viewBox="0 0 300 300">
  <!-- Background -->
  <rect width="300" height="300" fill="#0F172A" rx="50" ry="50"/>
  
  <!-- Stars in background -->
  <g fill="#FFFFFF">
    <circle cx="30" cy="40" r="1.2"/>
    <circle cx="60" cy="20" r="0.8"/>
    <circle cx="90" cy="50" r="1"/>
    <circle cx="120" cy="30" r="0.7"/>
    <circle cx="150" cy="45" r="1.1"/>
    <circle cx="180" cy="25" r="0.9"/>
    <circle cx="210" cy="55" r="1"/>
    <circle cx="240" cy="35" r="0.8"/>
    <circle cx="270" cy="20" r="1.2"/>
    <circle cx="40" cy="80" r="0.9"/>
    <circle cx="70" cy="70" r="1"/>
    <circle cx="100" cy="90" r="0.7"/>
    <circle cx="130" cy="75" r="1.1"/>
    <circle cx="250" cy="85" r="0.8"/>
    <circle cx="280" cy="65" r="1"/>
    <circle cx="20" cy="220" r="0.9"/>
    <circle cx="50" cy="250" r="1.1"/>
    <circle cx="190" cy="250" r="0.8"/>
    <circle cx="220" cy="230" r="1"/>
    <circle cx="260" cy="260" r="0.9"/>
    <circle cx="290" cy="220" r="1.1"/>
  </g>
  
  <!-- Orbital paths -->
  <g stroke="#3B82F6" fill="none" opacity="0.6">
    <ellipse cx="150" cy="150" rx="120" ry="60" transform="rotate(-10 150 150)" stroke-width="0.5"/>
    <ellipse cx="150" cy="150" rx="90" ry="45" transform="rotate(15 150 150)" stroke-width="0.5"/>
    <ellipse cx="150" cy="150" rx="60" ry="30" transform="rotate(-5 150 150)" stroke-width="0.5"/>
  </g>
  
  <!-- Central star -->
  <circle cx="150" cy="150" r="20" fill="url(#starGradient)">
    <animate attributeName="r" values="20;21;20" dur="3s" repeatCount="indefinite"/>
  </circle>
  
  <!-- Orbiting planet with ring -->
  <g transform="translate(150, 150)">
    <animateTransform attributeName="transform" 
                      type="rotate" 
                      from="0 0 0" 
                      to="360 0 0" 
                      dur="20s" 
                      repeatCount="indefinite"/>
    <g transform="translate(90, 0)">
      <circle cx="0" cy="0" r="8" fill="#60A5FA"/>
      <ellipse cx="0" cy="0" rx="12" ry="3" fill="none" stroke="#94A3B8" stroke-width="1" opacity="0.8"/>
    </g>
  </g>
  
  <!-- Small planet -->
  <g transform="translate(150, 150)">
    <animateTransform attributeName="transform" 
                      type="rotate" 
                      from="0 0 0" 
                      to="360 0 0" 
                      dur="12s" 
                      repeatCount="indefinite"/>
    <circle cx="60" cy="0" r="5" fill="#10B981"/>
  </g>
  
  <!-- Asteroid belt represented by dots -->
  <g transform="translate(150, 150)">
    <g transform="rotate(0)"><circle cx="110" cy="0" r="1.2" fill="#CBD5E1"/></g>
    <g transform="rotate(15)"><circle cx="105" cy="0" r="1" fill="#CBD5E1"/></g>
    <g transform="rotate(30)"><circle cx="108" cy="0" r="0.8" fill="#CBD5E1"/></g>
    <g transform="rotate(45)"><circle cx="112" cy="0" r="1.1" fill="#CBD5E1"/></g>
    <g transform="rotate(60)"><circle cx="107" cy="0" r="0.9" fill="#CBD5E1"/></g>
    <g transform="rotate(75)"><circle cx="110" cy="0" r="1" fill="#CBD5E1"/></g>
    <g transform="rotate(90)"><circle cx="105" cy="0" r="1.2" fill="#CBD5E1"/></g>
    <g transform="rotate(105)"><circle cx="109" cy="0" r="0.8" fill="#CBD5E1"/></g>
    <g transform="rotate(120)"><circle cx="112" cy="0" r="1" fill="#CBD5E1"/></g>
    <g transform="rotate(135)"><circle cx="106" cy="0" r="1.1" fill="#CBD5E1"/></g>
    <g transform="rotate(150)"><circle cx="110" cy="0" r="0.9" fill="#CBD5E1"/></g>
    <g transform="rotate(165)"><circle cx="108" cy="0" r="1" fill="#CBD5E1"/></g>
    <g transform="rotate(180)"><circle cx="111" cy="0" r="1.2" fill="#CBD5E1"/></g>
    <g transform="rotate(195)"><circle cx="107" cy="0" r="0.8" fill="#CBD5E1"/></g>
    <g transform="rotate(210)"><circle cx="109" cy="0" r="1" fill="#CBD5E1"/></g>
    <g transform="rotate(225)"><circle cx="112" cy="0" r="1.1" fill="#CBD5E1"/></g>
    <g transform="rotate(240)"><circle cx="106" cy="0" r="0.9" fill="#CBD5E1"/></g>
    <g transform="rotate(255)"><circle cx="110" cy="0" r="1" fill="#CBD5E1"/></g>
    <g transform="rotate(270)"><circle cx="107" cy="0" r="1.2" fill="#CBD5E1"/></g>
    <g transform="rotate(285)"><circle cx="109" cy="0" r="0.8" fill="#CBD5E1"/></g>
    <g transform="rotate(300)"><circle cx="112" cy="0" r="1" fill="#CBD5E1"/></g>
    <g transform="rotate(315)"><circle cx="108" cy="0" r="1.1" fill="#CBD5E1"/></g>
    <g transform="rotate(330)"><circle cx="106" cy="0" r="0.9" fill="#CBD5E1"/></g>
    <g transform="rotate(345)"><circle cx="110" cy="0" r="1" fill="#CBD5E1"/></g>
  </g>
  
  <!-- Interactive visualization symbol (lines radiating from center) -->
  <g stroke="#F472B6" stroke-width="0.8" opacity="0.7">
    <line x1="150" y1="150" x2="180" y2="120"/>
    <line x1="150" y1="150" x2="190" y2="150"/>
    <line x1="150" y1="150" x2="180" y2="180"/>
    <line x1="150" y1="150" x2="150" y2="190"/>
    <line x1="150" y1="150" x2="120" y2="180"/>
    <line x1="150" y1="150" x2="110" y2="150"/>
    <line x1="150" y1="150" x2="120" y2="120"/>
    <line x1="150" y1="150" x2="150" y2="110"/>
  </g>
  
  <!-- Gradients -->
  <defs>
    <radialGradient id="starGradient" cx="50%" cy="50%" r="50%" fx="50%" fy="50%">
      <stop offset="0%" stop-color="#FFFFFF"/>
      <stop offset="20%" stop-color="#FEF9C3"/>
      <stop offset="100%" stop-color="#F59E0B"/>
    </radialGradient>
  </defs>
</svg>